<svg 
    xmlns="http://www.w3.org/2000/svg" 
    className= "continent-svg south-america-svg"
    enable-background="new 0 0 317.11 504.005" 
    viewBox="0 0 317.11 504.005" 
    width="96" 
    height="96" 
    >
    <path d="M302.67,175.207c7.1-8.618,14.44-17.53,14.44-27.41c0-16.171-12.052-32.651-25.787-35.269
	c-6.646-1.272-12.859,0.576-18.341,2.207c-4.253,1.268-8.271,2.462-10.515,1.403c-2.204-1.039-3.355-3.892-4.689-7.195
	c-1.727-4.278-3.684-9.127-8.731-11.809c-3.841-2.041-7.677-2.03-11.046-2.027c-4.6,0.021-8.563,0.017-13.394-4.609
	c-4.023-3.854-5.689-10.239-7.301-16.415c-1.855-7.11-3.773-14.462-9.424-18.88c-5.415-4.228-12.117-5.273-18.599-6.284
	c-6.046-0.943-11.756-1.834-16.652-5.063c-3.905-2.572-7.158-8.264-10.303-13.768c-5.02-8.786-10.71-18.744-21.226-19.618
	c-6.695-0.56-11.916,2.517-16.524,5.229c-4.69,2.76-7.742,4.407-11.258,3.574c-2.897-0.685-5.668-3.797-8.602-7.091
	C99.412,6.224,92.808-1.192,80.926,0.162c-17.911,2.047-44.27,18.685-47.723,33.553c-1.71,7.381,0.247,14.641,1.974,21.045
	c1.61,5.975,3.001,11.135,1.317,14.998c-1.823,4.174-6.479,6.17-11.87,8.48c-4.96,2.126-10.088,4.323-13.863,8.634
	c-7.709,8.804-15.064,44.289-7.75,55.453c4.299,6.578,11.293,7.54,17.464,8.39c4.157,0.572,8.083,1.113,10.724,3.246
	c2.454,1.979,5.028,12.779,7.097,21.458c3.536,14.835,7.192,30.176,15.042,36.15c5.551,4.226,12.497,5.543,19.214,6.818
	c9.506,1.804,17.716,3.361,21.943,12.15c4.584,9.549,3.182,44.532,1.945,75.397c-0.904,22.545-1.757,43.84-0.467,56.235
	c3.152,30.298,29.466,104.652,44.615,119.959c14.166,14.313,33.384,21.289,46.145,21.854c0.333,0.015,0.663,0.022,0.99,0.022
	c6.316-0.001,11.736-2.729,14.628-7.416c2.934-4.753,2.84-10.893-0.249-16.423c-3.63-6.501-11.083-7.323-17.071-7.983
	c-5.354-0.591-8.966-1.152-10.326-3.482c-1.7-2.914,0.875-7.822,3.366-12.569c2.617-4.986,5.322-10.144,4.286-15.146
	c-1.255-6.068-6.016-8.729-9.841-10.868c-2.875-1.607-5.357-2.995-6.406-5.469c-3.127-7.344-2.865-31.341,4.128-38.334
	c3.221-3.221,7.375-3.045,13.835-2.372c5.388,0.562,10.962,1.142,15.307-2.492c4.807-4.032,4.752-10.723,4.7-17.193
	c-0.043-5.368-0.088-10.919,2.56-14.362c2.43-3.158,6.91-6.108,11.653-9.231c7.51-4.944,16.021-10.548,19.921-19.322
	c3.028-6.814,2.439-14.415,1.87-21.767c-0.641-8.273-1.246-16.089,2.957-22.602c3.463-5.372,10.072-7.538,17.724-10.046
	c9.292-3.045,19.823-6.497,26.328-16.923c6.833-10.948,4.845-23.199,3.092-34.008c-1.309-8.066-2.545-15.686-0.211-21.891
	C292.39,187.686,297.616,181.341,302.67,175.207z"></path></svg>