<svg
className="continent-svg africa-svg"
xmlns="http://www.w3.org/2000/svg" 
    width="96" 
    height="96" 
viewBox="0 0 455.549 504.005">
<path d="M415.394 251.679c6.034-4.486 11.244-8.361 15.264-11.832 11.286-9.733 25.264-36.143 24.884-51.946-.125-5.188-1.757-9.045-4.851-11.463-7.441-5.828-16.624-1.01-25.504 3.647-7.866 4.124-15.999 8.391-23.321 6.499-8.368-2.159-9.996-8.399-11.961-18.403-1.115-5.675-2.268-11.544-5.598-16.358-4.074-5.895-10.198-9.602-16.12-13.188-6.662-4.034-12.955-7.844-16.875-14.572-2.944-5.049-3.171-16.519-3.391-27.611-.354-17.903-.721-36.416-10.922-44.438-11.133-8.756-22.353-8.431-32.252-8.149-4.641.134-9.026.259-12.947-.586-4.657-1.004-9.483-4.125-14.149-7.145-7.631-4.936-15.521-10.04-23.927-6.763-7.4 2.887-8.617 9.655-9.594 15.095-1.061 5.903-1.951 9.637-6.674 11.907-5.482 2.634-20.283.824-34.431-4.208-11.647-4.144-20.462-9.563-22.456-13.806-2.512-5.358-1.29-10.505-.108-15.481 1.304-5.49 2.782-11.713-1.913-16.919-8.521-9.449-30.326-5.931-42.899-1.262-5.719 2.117-10.415 5.118-14.956 8.021-5.506 3.52-10.261 6.559-15.64 7.229-3.972.504-8.774-1.251-13.854-3.101-8.772-3.192-19.691-7.167-29.214 1.208-7.906 6.96-7.903 18.686-7.901 30.024.002 8.932.004 18.167-4.206 23.005-3.844 4.424-11.549 8.642-19 12.72C18.058 90.82 4.801 98.075 2.88 109.684c-1.709 10.331 4.425 16.662 9.353 21.748 4.535 4.681 7.275 7.781 6.509 12.353-.839 5.001-4.51 8.816-8.397 12.856C4.804 162.4-1.475 168.926.309 179.67c3.007 18.17 38.821 44.218 57.125 48.455 9.78 2.261 22.465-.91 34.733-3.979 11.081-2.771 22.538-5.638 28.05-3.145 5.092 2.303 7.685 6.724 10.431 11.404 3.476 5.926 7.416 12.643 16.704 14.623 5.738 1.224 11.016.998 15.676.799 7.759-.334 13.892-.593 20.916 4.966 11.254 8.903 19.211 57.778 18.338 73.653-.386 7.03-5.17 13.729-9.796 20.207-4.892 6.85-9.95 13.933-9.95 21.793 0 9.551 6.457 14.832 11.645 19.076 3.274 2.678 6.366 5.207 7.467 8.307 1.307 3.666.766 10.839.244 17.775-.74 9.823-1.505 19.981 2.004 26.554 3.065 5.749 7.875 9.071 12.528 12.283 4.354 3.007 8.467 5.847 10.636 10.513 1.661 3.567 1.618 8.901 1.577 14.059-.072 9.001-.154 19.204 8.62 24.438 2.98 1.778 7.071 2.554 11.783 2.554 17.408 0 43.278-10.585 52.811-20.296 6.671-6.796 10.12-15.765 13.163-23.678 2.657-6.91 5.167-13.438 9.269-17.228 3.556-3.289 8.029-4.729 12.765-6.253 6.812-2.191 14.533-4.676 17.8-13.536 2.801-7.574-1.218-14.475-4.764-20.562-3.833-6.581-6.056-10.83-3.571-15.103 2.43-4.171 5.776-5.64 10.012-7.499 6.11-2.683 13.715-6.021 18.056-18.688 3.539-10.328.549-20.874-2.342-31.072-2.991-10.551-6.085-21.462-2.226-32.526 5.72-16.391 28.643-33.438 45.381-45.885zm23.342 72.048c-10.132-2.038-15.583 7.24-19.566 14.017-1.991 3.387-4.049 6.888-6.004 8.124-2.304 1.459-5.216 2.093-8.299 2.764-5.607 1.221-11.962 2.604-16.391 9.239-4.378 6.577-5.19 27.498.14 41.633 3.121 8.275 8.081 13.537 14.346 15.219 1.762.472 3.472.69 5.133.69 17.342-.001 29.104-23.943 33.605-34.998 3.155-7.755 10.536-38.898 3.893-51.267-2.01-3.744-4.838-5.015-6.857-5.421z"/>
</svg>