<svg 
className= 'continent-svg oceania-svg'
id="OceaniaSVG" 
    width="96" 
    height="96" 
xmlns="http://www.w3.org/2000/svg" 
version="1.1" 
xmlns:xlink="http://www.w3.org/1999/xlink" 
xmlns:svgjs="http://svgjs.com/svgjs">
<g id="SvgjsG1008">
<svg xmlns="http://www.w3.org/2000/svg" data-name="Layer 1" viewBox="0 0 128 128" >
<path d="M73.03241 110.69824c-.01953-.01123-.04-.022-.05957-.03271a22.91319 22.91319 0 00-13.01678-2.56586c-3.16.28552-6.38239.85645-8.40887 3.56488l-.87109.85742-2.14154 1.39941q-2.65137 1.73071-5.29785 3.4707a8.35639 8.35639 0 00-3.57611 4.84216 6.14194 6.14194 0 00-.63977 2.35309 3.02142 3.02142 0 001.41705 2.20563 11.69886 11.69886 0 005.36133 1.15723c.45544.02234.911.0498 1.36719.0498a7.921 7.921 0 005.58-1.94189 18.57609 18.57609 0 014.13184-2.75537 21.03719 21.03719 0 005.15228-3.55518l.02832.0166a7.61858 7.61858 0 002.84766.73047 2.8744 2.8744 0 011.60938.4292 1.99621 1.99621 0 001.71.50635 6.71006 6.71006 0 003.68549-2.28271c.23535-.24219.459-.47266.67389-.66119.41663-.36542.89075-.61652 1.28229-1.02252a3.6617 3.6617 0 001.07117-1.98035C75.215 113.27393 74.52069 111.52979 73.03241 110.69824zM120.74213 13.75244c-.11914-.27148-.2334-.55029-.34863-.83105a10.48124 10.48124 0 00-2.6543-4.22754 1.94813 1.94813 0 01.63477-1.645l.19336-.18457a3.98635 3.98635 0 001.30664-2.0752 3.99432 3.99432 0 00-.26367-3.36279c-.80664-1.13916-2.15723-1.27-3.34961-1.38574-3.11713-.30518-5.20892 1.16846-6.88373 2.54883a14.179 14.179 0 01-1.99219-.27051c-.50781-.09229-1.01465-.18359-1.52539-.24756-1.40326-.1748-3.49213-.436-5.206 1.19775-1.7793 1.0127-4.06348 2.43262-4.57422 5.5874a1.66425 1.66425 0 01-.87207.54346c-.76562.27881-1.4765.61084-2.165.93213-.15527.07275-.31152.146-.46777.21777l-1.3291.00635a5.08445 5.08445 0 00-4.57129.32275c-.14746.07568-.29492.15381-.4541.21777l-3.02637 1.21a9.43821 9.43821 0 00-2.54291.646c-.28125.10254-.5625.20654-.84961.28906-2.043.32422-5.00977.83789-6.832 3.51953l-.78418.52783c-2.84857 1.92676-5.538 3.74658-8.7724 4.34375-1.06934.19775-1.46484.937-2.33594 2.56641a5.22631 5.22631 0 00-1.32513 1.78613 4.1133 4.1133 0 00-.332 4.19482 3.94515 3.94515 0 003.6347 1.92236c.15039.00342.30176.00684.45215.00977a3.08048 3.08048 0 001.05469 2.07275 4.19642 4.19642 0 00.81055 1.126 4.77217 4.77217 0 001.788 3.06439 11.0151 11.0151 0 001.89752 1.29694 3.63058 3.63058 0 004.4892-1.29346 3.03239 3.03239 0 00.46777-1.688l.36328-.519c.41626-.595.82111-1.20721 1.29358-1.76.149-.17444.35516-.47217.58728-.55249.02148-.00635.25-.03271 1.10742.333l.22266.17432c.36035.28516.72168.56836 1.10352.82324a3.29411 3.29411 0 002.68164.52393 3.151 3.151 0 001.997-1.689l.25879-.50244a10.95894 10.95894 0 001.26074-3.27588c.05762-.35937.08008-.49414.76172-.73291l.49316-.16992A9.7982 9.7982 0 0090.797 26.645a4.89915 4.89915 0 01.3623-.38574c.64258.36035 1.2832.79 1.29 1.16357a3.386 3.386 0 001.36517 2.95508 3.13785 3.13785 0 002.97461-.00537c.26074-.00293.52148-.00146.78223-.00049a14.716 14.716 0 004.11133-.39258l.40723-.04541a18.92842 18.92842 0 006.4892-2.03271l.4707-.21436c.32227-.146.64648-.30957.97168-.4751 1.751-.88818 2.18066-.9502 2.88281-.42383a2.00921 2.00921 0 00.42676.24365c1.24316.51953 3.06537 1.09326 4.53607.10352 1.57715-1.0625 1.55371-3.14453 1.5459-3.82861-.00977-.84131-.0332-1.68213-.05762-2.52344l-.01953-.72559c.00586-.01416.0127-.02783.01953-.0415a4.07075 4.07075 0 00.50391-2.10742 4.31991 4.31991 0 01.33008-.6123A3.72816 3.72816 0 00120.74213 13.75244zM76.49237 78.93994c-.09082-.12451-.18066-.24854-.27148-.373a3.23557 3.23557 0 00-1.09961-3.34326 10.68732 10.68732 0 00-1.15137-1.50732 3.97179 3.97179 0 01-.917-1.334 43.58733 43.58733 0 01.14453-4.7041c.01953-.23.043-.46094.06738-.69287a8.66792 8.66792 0 00-.47461-4.76221 2.00113 2.00113 0 00-.61035-.75635c-.08594-.10352-.21387-.269-.33789-.439a2.24234 2.24234 0 00-.03027-.28809c-.165-.98828-.8183-2.25146-2.996-2.65723a8.96852 8.96852 0 00-1.458-.11279c-.1283.00037-.56226-.46246-.69-.54871a5.93638 5.93638 0 00-.99725-.54077 6.95424 6.95424 0 00-2.36078-.49884c-.514-.03113-.61938-.56647-.75177-.97272a5.48069 5.48069 0 00-1.05566-2.05225 5.92539 5.92539 0 00-3.0058-1.769A5.46321 5.46321 0 0056.89 48.27686a5.83588 5.83588 0 01-.55078-.70068 3.20815 3.20815 0 00-2.00879-1.47949 3.44645 3.44645 0 00-2.60547.41357 27.68983 27.68983 0 01-6.80951 2.708 5.71762 5.71762 0 00-3.19531.41455 19.03428 19.03428 0 00-7.60834.02881 22.87158 22.87158 0 00-8.70416 2.76324 7.963 7.963 0 00-1.83972 1.71332c-.28125.3335-.59082.69922-.87793 1.10205a7.97247 7.97247 0 00-2.2002 1.63721c-.05176-.001-.10156-.001-.14453 0a4.70963 4.70963 0 00-2.75684 1.08887 6.04438 6.04438 0 00-2.07324 3.16138c-.00079.21649-.41583.51062-.53412.69263a14.91319 14.91319 0 00-2.27148 5.83252 6.57972 6.57972 0 00.3418 3.37158 2.53441 2.53441 0 01.10156.31787 5.0812 5.0812 0 00-1.55371 2.55957c-.15527.478-.42676 1.08057-.835 1.23633-4.36133 1.65967-3.85352 5.55469-3.61035 7.42725.36328 2.77881 1.37207 6.68408 5.92969 8.50488.24023.09619.48047.20459.72168.3125a8.82909 8.82909 0 002.9931.91064 34.68733 34.68733 0 017.29492 1.60693 34.48766 34.48766 0 009.1308 1.8042 12.87992 12.87992 0 007.64252 2.292 34.49463 34.49463 0 005.70508-.626 31.0512 31.0512 0 015.04291-.57471c.03418.00049.07617.002.10156.00049a2.772 2.772 0 002.08105-1.07422 10.45888 10.45888 0 012.793-2.15967c.51563-.31738 1.03125-.63574 1.52734-.981a13.88452 13.88452 0 002.02539-1.82715 8.8709 8.8709 0 011.63373-1.45215c1.88867.75391 4.7627.88135 5.84375.05859 1.27832-.97412 2.01367-.89062 2.791-.43555a4.06059 4.06059 0 004.77435-.49023 14.69031 14.69031 0 011.87012-1.45361A3.9252 3.9252 0 0078.925 84.48633a4.0218 4.0218 0 00-.72168-3.11377C77.65741 80.54541 77.07538 79.74268 76.49237 78.93994z"></path></svg></g></svg>