<svg 
xmlns="http://www.w3.org/2000/svg" 
id="AsiaSVG"
className="continent-svg asia-svg"
    width="96" 
    height="96" 
viewBox="0 0 503.978 442.036"
>
  <path d="M424.594 140.046c-1.216-5.719-2.474-11.632-1.343-15.476 1.388-4.714 9.311-9.489 16.3-13.702 9.774-5.891 19.881-11.983 18.36-21.161-1.694-10.221-12.591-10.691-21.348-11.069-5.181-.223-11.054-.477-13.374-2.615-2.453-2.266-1.789-7.314-1.021-13.159.838-6.366 1.787-13.581-.936-20.32-4.03-9.987-19.413-23.681-32.919-29.306-7.493-3.121-13.846-3.631-18.877-1.516-6.8 2.852-9.854 8.021-12.808 13.021-4.026 6.815-7.828 13.251-21.827 16.109-14.843 3.036-31.498-1.638-44.882-5.395-9.694-2.72-18.063-5.074-24.274-4.209-7.978 1.103-13.41 5.646-17.775 9.297-4.183 3.499-6.936 5.646-10.291 5.566-3.58-.077-6.84-1.92-10.29-3.872-4.928-2.788-10.514-5.949-17.483-3.719-5.098 1.628-8.407 5.276-11.328 8.495-3.912 4.312-5.696 5.861-8.914 5.024-2.528-.659-4.064-5.287-5.691-10.187-2.46-7.412-5.521-16.636-14.727-20.36-8.031-3.255-16.595-2.744-24.154-2.292-6.601.395-12.835.767-17.678-1.331-3.675-1.592-6.891-4.425-10.295-7.424-6.509-5.734-13.888-12.23-25.604-9.994-9.94 1.893-16.115 12.689-22.088 23.13-3.98 6.958-8.491 14.844-12.41 15.629-3.502.699-8.403-1.391-13.598-3.607-9.483-4.046-21.288-9.081-32.046.384C.973 45.044-1.706 63.251.97 76.555c1.874 9.319 6.019 15.498 11.67 17.397 8.287 2.785 14.744-3.442 19.934-8.444 4.787-4.615 7.9-7.327 10.723-6.106 3.821 1.654-.619 15.007-3.271 22.986-3.218 9.678-5.997 18.036-3.968 23.499 3.104 8.339 11.745 8.063 18.061 7.861 3.06-.097 6.226-.199 7.972.589 2.294 1.035 4.005 4.851 5.815 8.89 3.044 6.791 6.833 15.242 16.616 16.511 10.033 1.305 16.498-5.75 22.199-11.97 3.594-3.92 6.988-7.623 10.94-9.231 6.364-2.585 14.407-.81 18.505 2.402 2.223 1.742 3.195 3.682 2.893 5.761-.464 3.152-2.62 4.289-7.804 6.313-4.156 1.623-9.33 3.642-12.288 8.692-2.406 4.093-2.269 8.609-2.147 12.593.154 5.072.101 8.318-2.826 11.013-2.215 2.045-5.683 1.599-11.157.699-5.648-.928-12.046-1.979-18.037 1.316-8.129 4.469-12.858 17.057-12.577 26.157.191 6.211 2.58 10.709 6.728 12.667 5.462 2.574 10.534-.126 15.012-2.507 3.94-2.096 7.657-4.08 11.923-3.392 9.283 1.486 19.976 11.99 22.216 19.544 1.013 3.426 1.082 6.689 1.155 10.146.103 4.821.22 10.285 3.145 16.294 2.268 4.649 6.282 8.386 9.823 11.682 2.976 2.769 6.052 5.632 6.813 8.011.687 2.151.514 5.725.332 9.508-.332 6.892-.745 15.468 3.249 23.594 4.699 9.543 18.968 24.408 30.63 25.979 4.368.59 8.087-.688 10.753-3.694 6.342-7.159.714-18.843-4.729-30.142-3.417-7.094-7.291-15.135-6.571-19.328.898-5.268 4.446-7.194 10.16-9.901 3.717-1.762 7.561-3.583 10.302-7.014 3.235-4.051 3.771-8.74 4.244-12.879.525-4.6.939-8.232 4.352-11.215 2.969-2.592 8.457-3.802 13.982-3.083 5.056.658 9.225 2.755 11.152 5.607 2.103 3.114 1.993 7.864 1.877 12.894-.139 6.043-.297 12.893 3.909 17.915 2.982 3.565 6.771 5.382 10.112 6.983 4.96 2.378 8.876 4.256 10.969 11.122 1.678 5.524-.796 15.791-3.415 26.66-3.134 13.007-6.687 27.75-4.224 39.535 4.19 20.066 23.075 50.579 40.244 58.375 8.084 3.667 20.715 6.815 31.643 6.815 5.88 0 11.267-.911 15.186-3.145 3.753-2.139 5.966-5.364 6.399-9.325 1.402-12.716-12.294-15.265-23.299-17.313-4.633-.862-9.425-1.753-12.588-3.217-9.785-4.525-17.361-17.533-20.529-28.419-3.788-12.99-6.066-50.782-.011-57.346 1.785-1.935 4.922-1.419 9.895-.412 5.729 1.157 12.854 2.596 18.09-3.042 7.267-7.834 1.523-15.617-2.67-21.3-1.725-2.337-3.508-4.754-4.451-7.009-3.104-7.452-2.14-26.658 6.376-32.223 3.397-2.22 9.566-2.747 16.097-3.307 14.083-1.205 33.371-2.856 44.651-23.128 9.087-16.337 2.543-37.962-2.716-55.338-3.915-12.938-7.613-25.158-2.846-28.413 4.563-3.114 9.09.848 18.164 11.524 7.146 8.409 14.54 17.1 23.591 14.248 12.066-3.79 9.394-16.353 7.246-26.448z"/>
  <path d="M344.045 328.701c-8.26 0-10.662 7.918-12.416 13.7-1.22 4.02-2.48 8.176-5.01 9.962-3.059 2.159-4.688 1.941-7.153 1.614-2.6-.347-6.155-.819-10.24 2.192-2.684 1.974-4.32 5.181-4.734 9.274-.697 6.891 2.147 15.815 6.614 20.757 4.231 4.689 12.899 7.038 20.724 7.037 3.942 0 7.672-.597 10.508-1.79 8.669-3.649 12.927-17.231 13.94-27.758.848-8.915 1.352-24.88-4.796-31.641-1.993-2.189-4.564-3.347-7.437-3.347zm17.591-14.71c.057 4.769 1.663 10.121 4.522 15.067 2.857 4.957 6.69 9.027 10.794 11.462 2.755 1.634 5.479 2.457 8.012 2.457 1.898 0 3.688-.463 5.303-1.394 7.093-4.099 7.62-16.018 1.201-27.133-3.984-6.901-9.73-11.922-15.369-13.429-3.201-.856-6.223-.538-8.735.915-3.76 2.174-5.794 6.454-5.728 12.055zm8.307-24.892c1.892 1.508 4.249 2.286 6.889 2.286.527 0 1.065-.031 1.613-.094 5.805-.661 12.227-4.776 17.18-11.011 4.961-6.234 7.524-13.422 6.859-19.226-.377-3.291-1.779-5.984-4.046-7.782-2.271-1.811-5.213-2.569-8.504-2.193-5.806.661-12.229 4.778-17.179 11.011-3.564 4.479-5.944 9.538-6.703 14.244-.89 5.529.492 10.063 3.891 12.765zm-40.007-5.134a12.121 12.121 0 0 0 6.095 1.627c1.474 0 2.978-.259 4.463-.78 3.43-1.204 6.373-3.694 8.286-7.014 1.914-3.313 2.597-7.104 1.922-10.677-.717-3.795-2.854-6.891-6.018-8.716-3.164-1.824-6.912-2.125-10.556-.849-3.43 1.203-6.37 3.692-8.278 7.006-4.061 7.043-2.23 15.745 4.086 19.403zm74.589 80.622c-5.94-3.928-16.371-3.995-25.369-.166-12.913 5.507-24.97 26.938-20.079 42.153 3.329 10.358 14.639 16.507 24.091 17.229.635.048 1.254.072 1.858.072 5.866 0 10.311-2.253 12.346-6.323 3.094-6.181.022-11.199-2.444-15.231-2.395-3.915-3.805-6.491-2.669-9.981 1.104-3.394 3.672-4.739 7.769-6.553 4.122-1.824 9.768-4.323 9.768-11.546-.001-3.978-1.873-7.406-5.271-9.654zm23.447 11.588-.003.001c-4.476 1.453-7.867 5.358-9.073 10.445-1.24 5.232.119 10.586 3.547 13.974 2.95 2.916 6.484 4.142 9.604 5.224 3.158 1.095 5.886 2.041 7.784 4.543 1.355 1.782 1.213 3.508.819 6.656-.45 3.604-1.011 8.088 2.28 12.77 4.468 6.37 18.065 12.248 27.755 12.248 2.903 0 5.457-.528 7.308-1.729 2.287-1.484 3.687-4.316 4.279-8.658 1.446-10.592-2.37-31.966-11.87-42.716-11.953-13.528-33.975-15.495-42.43-12.758zm64.636-286.613c-8.561-2.337-17.732 3.814-20.451 13.714-2.706 9.896 2.053 19.86 10.615 22.214 1.229.335 2.468.496 3.7.496 7.361 0 14.423-5.731 16.741-14.21 2.716-9.896-2.037-19.859-10.605-22.214zm-5.365 48.316c-4.954-4.494-11.468-6.175-17.866-4.613-8.602 2.1-9.876 9.783-10.899 15.957-.724 4.363-1.407 8.483-4.152 10.894-2.604 2.289-7.998 4.065-13.215 5.782-10.155 3.344-21.667 7.134-20.946 17.584.266 3.889 2.112 7.011 5.342 9.028 3.062 1.913 6.998 2.619 11.141 2.619 10.775 0 22.948-4.775 24.762-5.512 14.269-5.787 30.503-23.552 32.167-35.201.852-5.984-1.514-12.167-6.334-16.538z"/>
</svg>
