<svg xmlns="http://www.w3.org/2000/svg" 
    id="EuropeSVG"
    className="continent-svg europe-svg" 
    version="1.1" 
    xmlns:xlink="http://www.w3.org/1999/xlink" 
    width="96" 
    height="96" 
    x="0" 
    y="0" 
    viewBox="0 0 511.999 511" 
    style="enable-background:new 0 0 512 512" 
    xml:space="preserve"
    >
    <g>
    <path d="M455.594.54A42.936 42.936 0 0 0 424.3 12.2l-45.586 42.98c-2.828 2.664-5.836 5.703-6.133 9.574-.273 3.566 1.848 6.851 2.438 10.379 1.593 9.5-8.973 17.535-18.57 16.87-5.255-.362-10.071-2.476-14.481-5.417-5.176-3.453-6.246-10.684-2.078-15.3a41.422 41.422 0 0 0 6.664-9.985c2.636-5.555-.278-12.168-6.11-14.106l-24.12-8.007c-11.673-3.88-24.02-7.801-36.055-5.278-17.508 3.676-29.368 19.774-38.18 35.367s-17.102 32.778-32.45 41.985c-4.867 2.918-10.277 4.906-14.906 8.187-4.332 3.07-21.738 24.434-18.48 32.168 2.035 4.836 6.809 7.895 12.031 8.293 9.149.703 16.363-4.113 22.906-9.633 1.325-1.125 3.348-.078 3.176 1.653-1.816 18.23-1.773 45.293 8.793 46.46 11.563 1.282 27.754-32.609 28.14-43.12.391-10.512-8.6-9.856-8.054-16.329s3.48-12.46 5.586-18.605c4.266-12.43 5.637-26.672 17.895-34.332 5.582-3.488 12.906-3.238 17.796 1.168 5.473 4.93 4.438 11.777 1.883 17.355-3.312 7.235-9.039 13.172-12.164 20.489-3.12 7.312-2.55 17.414 4.36 21.332 7.375 4.18 16.25-1.098 23.632-5.262 7.387-4.164 18.579-6.371 22.797.992-2.36 11.906-4.918 24.274-12.273 33.918-7.356 9.645-21.031 15.617-31.934 10.32-5.379.864-8.304 6.957-8.683 12.403-.38 5.441.84 11.008-.407 16.32-3.55 15.106-22.992 18.809-38.472 19.438l-30.774 1.253c-2.074.086-4.363.098-5.941-1.25-1.695-1.449-1.953-3.933-2.012-6.16-.215-8.23 4.016-17.965-1.445-24.61-4.453-4.222-17.586-3.128-19.836 2.587-2.254 5.715 1.898 16.754-2.3 22.414-4.2 5.656-15.13 7.98-22.083 20.488-1.926 3.461-3.45 7.281-6.375 9.942-2.726 2.476-6.355 3.656-9.863 4.765-16.774 5.309-42.79-6.707-51.313 2.516-7.12 8.789-3.168 21.703.52 32.398 3.691 10.7 5.96 24.57-2.887 31.606-7.992 6.355-19.648 2.699-29.074-1.211l-23.445-9.73c-6.075-2.52-12.985.863-14.723 7.21L2.742 359.52C.922 366.18-.91 373.145.5 379.902c2.512 12.004 14.48 19.692 26.246 23.075 8.129 2.336 16.64 3.3 24.856 5.21 5.921 1.375 11.933-2.12 13.605-7.964 1.45-5.067 3.266-9.996 5.922-14.532 4.61-7.875 12.23-14.52 21.277-15.625 4.477-.543 9.86-.086 12.559-3.707 2.125-2.855 1.437-6.992 3.137-10.117 3.101-5.703 11.324-4.797 17.765-4.055 10.883 1.247 22.07-.421 32.153-4.695 4.87-2.066 10.585-.578 13.68 3.715 7.738 10.75 12.468 30.14 19.421 41.625 6.156 10.172 10.723 12.742 11.492 25.438a7.691 7.691 0 0 1-3.097 6.656c-5.567 4.105-10.703 8.972-17.16 9.508-1.668.136-2.66 1.93-1.844 3.386 2.547 4.551 10.156 11.305 12.77 12.578 3.429 1.672 7.5 1.157 11.218.286 12.879-3.016 17.969-14.723 19.504-17.414 1.531-2.688 9.285-4.98 9.285-4.98 1.332 1.01 3.277.792 4.25-.571 1.89-2.645 1.895-6.79.262-9.809-2.149-3.976-6.176-6.496-9.906-9.047-12.711-8.703-14.286-33.422-23.043-46.11-2.032-2.94-3.805-6.651-4.57-10.257-1.262-5.934 5.113-10.547 10.347-7.476l41.887 24.574c2.39 1.402 4.87 2.89 6.375 5.222 3.91 6.075-.536 14.36 1.562 21.274 1.617 5.336 6.695 8.676 10.832 12.406 4.137 3.727 1.649 11.719 5.438 14.598 2.52 1.035 5.453.933 7.945-.157 1.93-.843 4-1.289 6.11-1.312 5.015-.059 10.316-1.879 9.273-6.629-.211-.957-.692-1.836-1.293-2.61l-8.25-16.745c-1.34-4.993 3.945-5.817 6.902-5.946 2.957-.129 10.18-.027 14.031-.027 3.852 0 22.684-17.05 24.024-24.594 1.601-9.004 3.207-18.008 4.808-27.012.73-4.12 1.606-8.515 4.567-11.468 2.957-2.953 6.375 2.293 10.836.277 5.77-2.61 2.277-9.742 10.34-9.926 3.097-.07 6.007 1.465 7.773 4.016.742 1.07 1.625 1.918 3.176 1.793.734-.059 1.43-.367 2.015-.809 6.02-4.562 10.489-10.812 16.125-15.816 5.325-4.727 16.211-10.82 19.333-7.16s7.933 18.722-16.504 32.547c-5.243 2.964-5.364 7.308-2.618 12.996 1.207 2.504 3.868 3.953 6.645 3.996 6.488.097 15.82-9.047 26.773-.094.817.672 6.45 16.32-5.359 19.656-16.14 4.563-22.805 3.907-42.035 6.403-8.828 1.144-18.422 2.668-24.465 9.214-4.297 4.657-6.27 11.38-11.43 15.051-2.789 1.985-6.289 2.883-8.867 5.14-4.023 3.52-4.855 9.665-3.43 14.821 1.426 5.156 4.7 9.567 7.907 13.844 2.027 2.7 4.164 5.5 7.191 6.984 2.457 1.207 5.281 1.434 8.016 1.32 16.14-.667 31.789-12.226 47.258-7.558 3.27.984 6.41 2.688 9.82 2.719 4.625.035 8.637-2.977 12.426-5.637 15.402-10.812 33.382-17.918 52.007-20.555 4.02-.566 8.692-1.328 10.649-4.89.906-1.649 1.02-3.602 1.113-5.477.496-9.754.324-21.082-7.285-27.191-3.152-2.528-7.137-3.715-10.8-5.418-11.071-5.14-13.462-22.703-9.516-29.332 2.847-4.774 27.574 7.902 41.175 15.36 3.996 2.19 8.875-.704 8.875-5.263L512 6.531a5.994 5.994 0 0 0-6.027-5.996c-13.453.078-45.153.227-50.38.004zm0 0"></path>
    <g>
    <path d="M459.227.613c-1.649-.02-2.899-.043-3.633-.074a42.872 42.872 0 0 0-5.16.102c2.941-.008 5.914-.016 8.793-.028zM482.254 372.262c-3.152-2.532-7.137-3.715-10.8-5.418-7.513-3.489-9.263-21.703-9.517-29.332-12.761-6.442-12.882 2.199-15 5.754-1.742 2.925-2.308 7.324-.93 12.84 1.86 7.44 2.188 13.624 5.34 16.156 7.61 6.105 7.778 17.433 7.286 27.187-.094 1.88-.211 3.828-1.113 5.477-1.957 3.566-6.63 4.324-10.649 4.894-18.625 2.637-36.605 9.742-52.008 20.555-.957.672-1.93 1.367-2.922 2.027 3.875-.425 7.735-.27 11.582.891 3.266.984 6.407 2.687 9.817 2.715 4.629.039 8.64-2.973 12.43-5.633 15.402-10.813 33.382-17.918 52.003-20.555 4.024-.566 8.692-1.328 10.649-4.89.906-1.649 1.023-3.602 1.117-5.48.492-9.755.324-21.083-7.285-27.188zM481.094.64l-.012 341.094c7.59 3.399 15.922 7.786 22.016 11.13 4 2.195 8.89-.696 8.89-5.255L512 6.531a5.995 5.995 0 0 0-6.031-5.996c-5.989.035-15.598.082-24.875.106zm0 0"></path>
    </g></g></svg>