<svg 
    xmlns="http://www.w3.org/2000/svg"
    className="north-america-svg continent-svg" 
    enable-background="new 0 0 504.031 503.981" 
    viewBox="0 0 504.031 503.981" 
    width="96" 
    height="96" 
    >
    <path d="M473.231,148.255c-11.074-3.053-17.473,2.16-22.611,6.347c-4.023,3.278-6.472,5.105-10.099,4.563
		c-3.628-0.543-5.594-3.145-8.501-7.345c-3.524-5.09-8.352-12.067-19.105-9.662c-8.426,1.887-13.667,13.648-19.734,27.266
		c-6.135,13.77-13.091,29.373-21.614,28.442c-3.902-0.43-5.302-4.175-7.367-12.022c-1.456-5.535-2.962-11.258-6.896-15.333
		c-2.768-2.862-6.747-5.229-10.594-7.52c-9.743-5.796-14.068-9.176-11.639-15.106c2.614-6.397,17.68-11.3,30.973-15.625
		c15.425-5.02,29.996-9.761,34.36-18.522c1.546-3.104,1.727-6.428,0.537-9.88c-5.681-16.475-37.791-8.933-71.787-0.948
		c-17.877,4.2-34.758,8.159-44.162,7.522c-13.736-0.942-21.08-6.313-28.183-11.509c-5.982-4.376-12.168-8.9-21.438-10.174
		c-10.535-1.441-20.927,2.245-30.98,5.813c-8.94,3.172-18.176,6.458-27.156,5.897c-6.684-0.413-15.292-3.869-25.26-7.871
		c-17.622-7.073-39.553-15.874-61.456-10.887c-32.054,7.308-76.452,37.583-86.287,52.009c-5.157,7.573-5.636,18.312-1.249,28.025
		c3.812,8.439,10.559,14.038,18.048,14.975c7.478,0.937,15.479-2.927,24.743-7.399c11.894-5.745,25.375-12.258,39.938-9.261
		c7.442,1.53,13.391,5.715,17.683,12.438c7.634,11.959,9.612,32.204,5.04,51.574c-2.892,12.238-8.218,21.326-13.369,30.114
		c-6.389,10.898-12.423,21.193-13.222,35.95c-1.214,22.478,13.359,93.985,27.032,101.646c5.572,3.115,11.02,3.072,15.83,3.039
		c4.906-0.035,9.141-0.067,13.568,2.848c3.946,2.605,9.657,13.024,14.695,22.217c7.371,13.449,14.333,26.152,22.157,30.275
		c8.179,4.301,14.671,3.168,20.95,2.069c4.547-0.794,9.249-1.615,15.322-0.604c5.479,0.916,15.512,11.886,24.364,21.564
		c13.849,15.142,28.169,30.8,41.366,30.8c12.801,0,22.691-4.325,27.134-11.866c2.808-4.766,2.918-10.204,0.306-14.92
		c-3.642-6.581-11.094-7.287-17.67-7.91c-4.959-0.47-9.643-0.914-12.497-3.447c-2.681-2.377-2.411-5.218-1.703-10.033
		c0.641-4.355,1.438-9.776-2.153-14.473c-3.788-4.953-9.699-5.586-14.915-6.144c-4.916-0.526-8.01-1.008-9.525-3.262
		c-1.171-1.738,0.514-5.898,2-9.568c2.573-6.351,6.096-15.049-1.804-20.692c-6.046-4.317-14.078-1.293-21.843,1.629
		c-9.869,3.714-16.691,5.809-21.432,1.26c-3.579-3.432-4.81-9.646-3.377-17.051c2.105-10.887,10.7-26.067,27.992-33.021
		c14.832-5.969,27.569,0.711,39.889,7.168c8.939,4.686,17.378,9.113,25.594,7.429c13.211-2.716,17.209-18.029,20.736-31.54
		c1.806-6.919,3.512-13.454,6.138-17.644c3.754-5.992,12.45-8.799,21.655-11.77c8.394-2.71,17.074-5.512,23.159-11.175
		c6.632-6.167,10.29-13.264,13.518-19.524c3.012-5.844,5.614-10.891,10.045-14.701c4.636-3.981,16.393-4.975,26.765-5.851
		c13.076-1.104,24.369-2.059,29.371-8.095c4.709-5.695,3.105-13.145,1.69-19.718c-1.931-8.968-1.86-11.826,2.321-13.482
		c4.652-1.845,10.557,1.86,16.806,5.783c8.47,5.315,19.009,11.93,28.99,3.719c8.346-6.857,5.229-26.519,3.501-34.652
		C494.854,176.467,486.338,151.871,473.231,148.255z" ></path>
        <path d="M468.203 62.351c-12.419-5.006-38.094 3.177-50.4 13.38-8.34 6.916-9.143 13.128-8.347 17.121 2.486 12.487 16.168 11.244 26.158 10.337 5.536-.504 12.426-1.132 14.496.869 2.185 2.11 1.825 6.92 1.445 12.012-.57 7.623-1.35 18.064 8.851 22.136 2.012.804 4.219 1.169 6.538 1.169 8.916-.001 19.458-5.404 26.712-12.026 8.359-7.63 11.916-16.172 9.757-23.438-2.436-8.188-9.689-9.608-15.518-10.749-3.903-.765-7.589-1.486-9.68-3.908-1.641-1.896-1.466-4.506-1.045-8.605C477.747 75.027 478.619 66.533 468.203 62.351zM341.46 48.724c8.428.44 18.916.989 21.356 3.76 2.735 3.107 2.957 7.344 3.191 11.828.312 5.943.739 14.083 10.003 16.418 1.974.497 3.859.727 5.666.727 11.238-.001 19.413-8.852 26.745-16.79 4.612-4.994 8.969-9.711 13.38-11.54 5.018-2.081 9.684-2.71 14.624-3.376 7.848-1.059 15.963-2.152 24.256-9.408 8.898-7.777 13.988-18.55 12.968-27.444-.585-5.099-3.22-9.139-7.417-11.376-6.652-3.546-17.749-.28-30.599 3.505-9.676 2.85-19.682 5.797-27.915 5.924-8.937.13-16.283-1.688-23.384-3.451-7.815-1.94-15.194-3.775-23.582-2.706-9.918 1.263-40.318 7.73-49.58 20.452-2.389 3.281-3.297 6.903-2.626 10.471C310.68 47.114 326.328 47.933 341.46 48.724zM232.877 77.82c0 0 .001.001.001.001 5.979 3.185 13.061.717 19.309-1.462 4.197-1.464 8.538-2.979 10.993-2.201 1.809.568 2.679 2.314 4.186 5.61 2.075 4.54 4.917 10.758 13.455 13.173 6.257 1.769 13.852 3.103 20.841 3.103 6.369-.001 12.235-1.109 16.119-4.007 3.519-2.624 5.68-6.813 6.085-11.792.581-7.132-2.576-14.838-8.658-21.141-11.442-11.858-53.702-26.456-70.708-19.191-11.883 5.07-17.685 16.385-18.048 24.752C226.19 70.708 228.532 75.503 232.877 77.82z"></path></svg>